<svg width="1086" height="747" viewBox="0 0 1086 747" fill="none" xmlns="http://www.w3.org/2000/svg">
<g filter="url(#filter0_d)">
<rect x="583" y="144" width="498" height="70" rx="5" fill="white"/>
</g>
<circle cx="615.5" cy="178.5" r="12.5" fill="#EBF8FF"/>
<rect x="653" y="166" width="276" height="10" rx="5" fill="#EBF8FF"/>
<rect x="653" y="184" width="144" height="10" rx="5" fill="#EBF8FF"/>
<rect x="653" y="184" width="144" height="10" rx="5" fill="#EBF8FF"/>
<g filter="url(#filter1_d)">
<rect x="202" y="1" width="280" height="148" rx="5" fill="white"/>
</g>
<rect x="218" y="34" width="242" height="10" rx="5" fill="#EBF8FF"/>
<rect x="218" y="52" width="126.261" height="10" rx="5" fill="#EBF8FF"/>
<rect x="218" y="52" width="212.188" height="10" rx="5" fill="#EBF8FF"/>
<rect x="350" y="98" width="115" height="35" rx="5" fill="#EBF8FF"/>
<rect x="218" y="98" width="118" height="35" rx="5" fill="#EBF8FF"/>
<g filter="url(#filter2_d)">
<rect x="438" y="264" width="535" height="185" rx="5" fill="white"/>
</g>
<rect x="472" y="285" width="242" height="10" rx="5" fill="#EBF8FF"/>
<rect x="472" y="303" width="126.261" height="10" rx="5" fill="#EBF8FF"/>
<rect x="472" y="303" width="212.188" height="10" rx="5" fill="#EBF8FF"/>
<rect x="472" y="326" width="256" height="10" rx="5" fill="#EBF8FF"/>
<rect x="472" y="344" width="133.565" height="10" rx="5" fill="#EBF8FF"/>
<rect x="472" y="344" width="202.203" height="10" rx="5" fill="#EBF8FF"/>
<rect x="472" y="364" width="242" height="10" rx="5" fill="#EBF8FF"/>
<rect x="472" y="382" width="126.261" height="10" rx="5" fill="#EBF8FF"/>
<rect x="472" y="382" width="191.145" height="10" rx="5" fill="#EBF8FF"/>
<rect x="472" y="419" width="66" height="10" rx="5" fill="#EBF8FF"/>
<rect x="472" y="419" width="66" height="10" rx="5" fill="#EBF8FF"/>
<rect x="773.5" y="284.5" width="163" height="126" rx="5.5" fill="#EBF8FF" stroke="#90CDF4"/>
<g filter="url(#filter3_d)">
<rect x="90" y="190" width="272" height="229" rx="5" fill="white"/>
</g>
<rect x="154" y="221" width="144" height="10" rx="5" fill="#EBF8FF"/>
<rect x="126.5" y="248.5" width="200" height="36" rx="5.5" fill="white" stroke="#C4C4C4"/>
<rect x="126.5" y="301.5" width="200" height="36" rx="5.5" fill="white" stroke="#C4C4C4"/>
<rect x="126.5" y="354.5" width="200" height="36" rx="5.5" fill="#EBF8FF" stroke="#90CDF4"/>
<g filter="url(#filter4_d)">
<rect x="361" y="499" width="465" height="157" rx="5" fill="white"/>
</g>
<rect x="527" y="586" width="132" height="11" rx="5" fill="#EBF8FF"/>
<rect x="558" y="607" width="70" height="11" rx="5" fill="#EBF8FF"/>
<rect x="572.5" y="529.5" width="41" height="41" rx="5.5" fill="#EBF8FF" stroke="#90CDF4"/>
<g filter="url(#filter5_d)">
<rect x="114" y="460" width="175.834" height="129" rx="5" fill="white"/>
</g>
<rect x="126.325" y="531.484" width="49.9143" height="9.03822" rx="4.51911" fill="#EBF8FF"/>
<rect x="158.369" y="546.274" width="49.9143" height="9.03822" rx="4.51911" fill="#EBF8FF"/>
<rect x="126.325" y="561.064" width="49.9143" height="9.03822" rx="4.51911" fill="#EBF8FF"/>
<rect x="126.325" y="546.274" width="26.4697" height="9.03822" rx="4.51911" fill="#EBF8FF"/>
<rect x="182.197" y="531.484" width="26.4697" height="9.03822" rx="4.51911" fill="#EBF8FF"/>
<rect x="214.242" y="546.274" width="26.4697" height="9.03822" rx="4.51911" fill="#EBF8FF"/>
<path d="M114 465C114 462.239 116.239 460 119 460H284.834C287.596 460 289.834 462.239 289.834 465V518.338H114V465Z" fill="#EBF8FF"/>
<g filter="url(#filter6_d)">
<rect x="535" y="59" width="274" height="35" rx="5" fill="white"/>
</g>
<rect x="547.5" y="67.5" width="77" height="18" rx="9" fill="#EBF8FF" stroke="#EBF8FF"/>
<rect x="633.5" y="67.5" width="77" height="18" rx="9" fill="#EBF8FF" stroke="#EBF8FF"/>
<circle cx="70.5" cy="676.5" r="70" fill="#EBF8FF" stroke="#90CDF4"/>
<path d="M63.3034 709.5L176 608.122V709.5H63.3034Z" fill="white" stroke="#90CDF4"/>
<rect x="923.5" y="578.5" width="157" height="145" rx="4.5" fill="#EBF8FF" stroke="#90CDF4"/>
<path d="M946.303 701.5L1059 600.122V701.5H946.303Z" fill="white" stroke="#90CDF4"/>
<defs>
<filter id="filter0_d" x="580" y="142" width="506" height="78" filterUnits="userSpaceOnUse" color-interpolation-filters="sRGB">
<feFlood flood-opacity="0" result="BackgroundImageFix"/>
<feColorMatrix in="SourceAlpha" type="matrix" values="0 0 0 0 0 0 0 0 0 0 0 0 0 0 0 0 0 0 127 0"/>
<feOffset dx="1" dy="2"/>
<feGaussianBlur stdDeviation="2"/>
<feColorMatrix type="matrix" values="0 0 0 0 0 0 0 0 0 0 0 0 0 0 0 0 0 0 0.12 0"/>
<feBlend mode="normal" in2="BackgroundImageFix" result="effect1_dropShadow"/>
<feBlend mode="normal" in="SourceGraphic" in2="effect1_dropShadow" result="shape"/>
</filter>
<filter id="filter1_d" x="200" y="0" width="286" height="154" filterUnits="userSpaceOnUse" color-interpolation-filters="sRGB">
<feFlood flood-opacity="0" result="BackgroundImageFix"/>
<feColorMatrix in="SourceAlpha" type="matrix" values="0 0 0 0 0 0 0 0 0 0 0 0 0 0 0 0 0 0 127 0"/>
<feOffset dx="1" dy="2"/>
<feGaussianBlur stdDeviation="1.5"/>
<feColorMatrix type="matrix" values="0 0 0 0 0 0 0 0 0 0 0 0 0 0 0 0 0 0 0.12 0"/>
<feBlend mode="normal" in2="BackgroundImageFix" result="effect1_dropShadow"/>
<feBlend mode="normal" in="SourceGraphic" in2="effect1_dropShadow" result="shape"/>
</filter>
<filter id="filter2_d" x="435" y="262" width="543" height="193" filterUnits="userSpaceOnUse" color-interpolation-filters="sRGB">
<feFlood flood-opacity="0" result="BackgroundImageFix"/>
<feColorMatrix in="SourceAlpha" type="matrix" values="0 0 0 0 0 0 0 0 0 0 0 0 0 0 0 0 0 0 127 0"/>
<feOffset dx="1" dy="2"/>
<feGaussianBlur stdDeviation="2"/>
<feColorMatrix type="matrix" values="0 0 0 0 0 0 0 0 0 0 0 0 0 0 0 0 0 0 0.12 0"/>
<feBlend mode="normal" in2="BackgroundImageFix" result="effect1_dropShadow"/>
<feBlend mode="normal" in="SourceGraphic" in2="effect1_dropShadow" result="shape"/>
</filter>
<filter id="filter3_d" x="88" y="189" width="278" height="235" filterUnits="userSpaceOnUse" color-interpolation-filters="sRGB">
<feFlood flood-opacity="0" result="BackgroundImageFix"/>
<feColorMatrix in="SourceAlpha" type="matrix" values="0 0 0 0 0 0 0 0 0 0 0 0 0 0 0 0 0 0 127 0"/>
<feOffset dx="1" dy="2"/>
<feGaussianBlur stdDeviation="1.5"/>
<feColorMatrix type="matrix" values="0 0 0 0 0 0 0 0 0 0 0 0 0 0 0 0 0 0 0.12 0"/>
<feBlend mode="normal" in2="BackgroundImageFix" result="effect1_dropShadow"/>
<feBlend mode="normal" in="SourceGraphic" in2="effect1_dropShadow" result="shape"/>
</filter>
<filter id="filter4_d" x="357" y="497" width="473" height="165" filterUnits="userSpaceOnUse" color-interpolation-filters="sRGB">
<feFlood flood-opacity="0" result="BackgroundImageFix"/>
<feColorMatrix in="SourceAlpha" type="matrix" values="0 0 0 0 0 0 0 0 0 0 0 0 0 0 0 0 0 0 127 0"/>
<feOffset dy="2"/>
<feGaussianBlur stdDeviation="2"/>
<feColorMatrix type="matrix" values="0 0 0 0 0 0 0 0 0 0 0 0 0 0 0 0 0 0 0.12 0"/>
<feBlend mode="normal" in2="BackgroundImageFix" result="effect1_dropShadow"/>
<feBlend mode="normal" in="SourceGraphic" in2="effect1_dropShadow" result="shape"/>
</filter>
<filter id="filter5_d" x="110" y="458" width="183.834" height="137" filterUnits="userSpaceOnUse" color-interpolation-filters="sRGB">
<feFlood flood-opacity="0" result="BackgroundImageFix"/>
<feColorMatrix in="SourceAlpha" type="matrix" values="0 0 0 0 0 0 0 0 0 0 0 0 0 0 0 0 0 0 127 0"/>
<feOffset dy="2"/>
<feGaussianBlur stdDeviation="2"/>
<feColorMatrix type="matrix" values="0 0 0 0 0 0 0 0 0 0 0 0 0 0 0 0 0 0 0.12 0"/>
<feBlend mode="normal" in2="BackgroundImageFix" result="effect1_dropShadow"/>
<feBlend mode="normal" in="SourceGraphic" in2="effect1_dropShadow" result="shape"/>
</filter>
<filter id="filter6_d" x="534" y="59" width="278" height="39" filterUnits="userSpaceOnUse" color-interpolation-filters="sRGB">
<feFlood flood-opacity="0" result="BackgroundImageFix"/>
<feColorMatrix in="SourceAlpha" type="matrix" values="0 0 0 0 0 0 0 0 0 0 0 0 0 0 0 0 0 0 127 0"/>
<feOffset dx="1" dy="2"/>
<feGaussianBlur stdDeviation="1"/>
<feColorMatrix type="matrix" values="0 0 0 0 0 0 0 0 0 0 0 0 0 0 0 0 0 0 0.12 0"/>
<feBlend mode="normal" in2="BackgroundImageFix" result="effect1_dropShadow"/>
<feBlend mode="normal" in="SourceGraphic" in2="effect1_dropShadow" result="shape"/>
</filter>
</defs>
</svg>
