<svg width="887" height="783" viewBox="0 0 887 783" fill="none" xmlns="http://www.w3.org/2000/svg">
<g filter="url(#filter0_d)">
<rect x="401" y="175" width="423" height="56" rx="5" fill="white"/>
</g>
<circle cx="433.5" cy="202.5" r="12.5" fill="#63B3ED"/>
<rect x="470" y="198" width="276" height="10" rx="5" fill="#63B3ED" fill-opacity="0.2"/>
<g filter="url(#filter1_d)">
<rect x="111" y="1" width="280" height="148" rx="5" fill="white"/>
</g>
<rect x="180" y="30" width="189" height="10" rx="5" fill="#EBF8FF"/>
<rect x="180" y="48" width="122" height="10" rx="5" fill="#63B3ED"/>
<circle cx="144.5" cy="44.5" r="17.5" fill="#63B3ED"/>
<rect x="259" y="98" width="115" height="35" rx="5" fill="#63B3ED" fill-opacity="0.65"/>
<rect x="127" y="98" width="118" height="35" rx="5" fill="#EBF8FF"/>
<g filter="url(#filter2_d)">
<rect x="2" y="203" width="272" height="229" rx="5" fill="white"/>
</g>
<rect x="66" y="234" width="144" height="10" rx="5" fill="#63B3ED"/>
<rect x="38.5" y="261.5" width="200" height="36" rx="5.5" fill="white" stroke="#C4C4C4"/>
<rect x="38.5" y="314.5" width="200" height="36" rx="5.5" fill="white" stroke="#C4C4C4"/>
<rect x="38.5" y="367.5" width="200" height="36" rx="5.5" fill="#EBF8FF" stroke="#90CDF4"/>
<g filter="url(#filter3_d)">
<rect x="444" y="59" width="274" height="35" rx="5" fill="white"/>
</g>
<rect x="456.5" y="67.5" width="77" height="18" rx="9" fill="#EBF8FF" stroke="#EBF8FF"/>
<rect x="542.5" y="67.5" width="77" height="18" rx="9" fill="#63B3ED" stroke="#EBF8FF"/>
<g filter="url(#filter4_d)">
<path d="M73 505C73 502.239 75.2386 500 78 500H724C726.761 500 729 502.239 729 505V777H73V505Z" fill="white"/>
</g>
<path d="M73 534H236V777H73V534Z" fill="#EBF8FF"/>
<path d="M236 534H729V777H236V534Z" fill="#F7FAFC"/>
<circle cx="98.5" cy="565.5" r="11.5" fill="#63B3ED"/>
<circle cx="92" cy="518" r="5" fill="#63B3ED"/>
<circle cx="110" cy="518" r="5" fill="#63B3ED" fill-opacity="0.77"/>
<circle cx="128" cy="518" r="5" fill="#63B3ED" fill-opacity="0.42"/>
<rect x="260" y="554" width="132" height="10" rx="5" fill="#63B3ED"/>
<rect x="260" y="572" width="258" height="10" rx="5" fill="#63B3ED" fill-opacity="0.25"/>
<rect x="123" y="559" width="91" height="10" rx="5" fill="#63B3ED" fill-opacity="0.25"/>
<rect x="92" y="613" width="91" height="10" rx="5" fill="#63B3ED" fill-opacity="0.25"/>
<rect x="92" y="634" width="76" height="10" rx="5" fill="#63B3ED" fill-opacity="0.25"/>
<rect x="92" y="655" width="76" height="10" rx="5" fill="#63B3ED" fill-opacity="0.25"/>
<rect x="260" y="609" width="215" height="80" rx="5" fill="white"/>
<rect x="495" y="609" width="199" height="80" rx="5" fill="white"/>
<g filter="url(#filter5_d)">
<rect x="347" y="264" width="535" height="185" rx="5" fill="white"/>
</g>
<rect x="381" y="297" width="242" height="10" rx="5" fill="#EBF8FF"/>
<rect x="381" y="315" width="126.261" height="10" rx="5" fill="#EBF8FF"/>
<rect x="381" y="315" width="212.188" height="10" rx="5" fill="#EBF8FF"/>
<rect x="381" y="335" width="153" height="10" rx="5" fill="#63B3ED"/>
<rect x="381" y="353" width="79.8261" height="10" rx="5" fill="#63B3ED"/>
<rect x="381" y="353" width="120.848" height="10" rx="5" fill="#63B3ED"/>
<rect x="381" y="390" width="66" height="23" rx="5" fill="#EBF8FF"/>
<rect x="683" y="293" width="162" height="125" rx="5" fill="#63B3ED" fill-opacity="0.2"/>
<path d="M703 339.378C703 335.378 707.465 332.997 710.787 335.227L772.25 376.486C774.241 377.823 776.902 377.557 778.589 375.853L815.447 338.636C818.59 335.463 824 337.688 824 342.154V397C824 399.761 821.761 402 819 402H708C705.239 402 703 399.761 703 397V339.378Z" fill="#63B3ED" fill-opacity="0.7"/>
<circle cx="774" cy="330" r="18" fill="#63B3ED"/>
<defs>
<filter id="filter0_d" x="398" y="173" width="431" height="64" filterUnits="userSpaceOnUse" color-interpolation-filters="sRGB">
<feFlood flood-opacity="0" result="BackgroundImageFix"/>
<feColorMatrix in="SourceAlpha" type="matrix" values="0 0 0 0 0 0 0 0 0 0 0 0 0 0 0 0 0 0 127 0"/>
<feOffset dx="1" dy="2"/>
<feGaussianBlur stdDeviation="2"/>
<feColorMatrix type="matrix" values="0 0 0 0 0 0 0 0 0 0 0 0 0 0 0 0 0 0 0.12 0"/>
<feBlend mode="normal" in2="BackgroundImageFix" result="effect1_dropShadow"/>
<feBlend mode="normal" in="SourceGraphic" in2="effect1_dropShadow" result="shape"/>
</filter>
<filter id="filter1_d" x="109" y="0" width="286" height="154" filterUnits="userSpaceOnUse" color-interpolation-filters="sRGB">
<feFlood flood-opacity="0" result="BackgroundImageFix"/>
<feColorMatrix in="SourceAlpha" type="matrix" values="0 0 0 0 0 0 0 0 0 0 0 0 0 0 0 0 0 0 127 0"/>
<feOffset dx="1" dy="2"/>
<feGaussianBlur stdDeviation="1.5"/>
<feColorMatrix type="matrix" values="0 0 0 0 0 0 0 0 0 0 0 0 0 0 0 0 0 0 0.12 0"/>
<feBlend mode="normal" in2="BackgroundImageFix" result="effect1_dropShadow"/>
<feBlend mode="normal" in="SourceGraphic" in2="effect1_dropShadow" result="shape"/>
</filter>
<filter id="filter2_d" x="0" y="202" width="278" height="235" filterUnits="userSpaceOnUse" color-interpolation-filters="sRGB">
<feFlood flood-opacity="0" result="BackgroundImageFix"/>
<feColorMatrix in="SourceAlpha" type="matrix" values="0 0 0 0 0 0 0 0 0 0 0 0 0 0 0 0 0 0 127 0"/>
<feOffset dx="1" dy="2"/>
<feGaussianBlur stdDeviation="1.5"/>
<feColorMatrix type="matrix" values="0 0 0 0 0 0 0 0 0 0 0 0 0 0 0 0 0 0 0.12 0"/>
<feBlend mode="normal" in2="BackgroundImageFix" result="effect1_dropShadow"/>
<feBlend mode="normal" in="SourceGraphic" in2="effect1_dropShadow" result="shape"/>
</filter>
<filter id="filter3_d" x="443" y="59" width="278" height="39" filterUnits="userSpaceOnUse" color-interpolation-filters="sRGB">
<feFlood flood-opacity="0" result="BackgroundImageFix"/>
<feColorMatrix in="SourceAlpha" type="matrix" values="0 0 0 0 0 0 0 0 0 0 0 0 0 0 0 0 0 0 127 0"/>
<feOffset dx="1" dy="2"/>
<feGaussianBlur stdDeviation="1"/>
<feColorMatrix type="matrix" values="0 0 0 0 0 0 0 0 0 0 0 0 0 0 0 0 0 0 0.12 0"/>
<feBlend mode="normal" in2="BackgroundImageFix" result="effect1_dropShadow"/>
<feBlend mode="normal" in="SourceGraphic" in2="effect1_dropShadow" result="shape"/>
</filter>
<filter id="filter4_d" x="69" y="498" width="664" height="285" filterUnits="userSpaceOnUse" color-interpolation-filters="sRGB">
<feFlood flood-opacity="0" result="BackgroundImageFix"/>
<feColorMatrix in="SourceAlpha" type="matrix" values="0 0 0 0 0 0 0 0 0 0 0 0 0 0 0 0 0 0 127 0"/>
<feOffset dy="2"/>
<feGaussianBlur stdDeviation="2"/>
<feColorMatrix type="matrix" values="0 0 0 0 0 0 0 0 0 0 0 0 0 0 0 0 0 0 0.12 0"/>
<feBlend mode="normal" in2="BackgroundImageFix" result="effect1_dropShadow"/>
<feBlend mode="normal" in="SourceGraphic" in2="effect1_dropShadow" result="shape"/>
</filter>
<filter id="filter5_d" x="344" y="262" width="543" height="193" filterUnits="userSpaceOnUse" color-interpolation-filters="sRGB">
<feFlood flood-opacity="0" result="BackgroundImageFix"/>
<feColorMatrix in="SourceAlpha" type="matrix" values="0 0 0 0 0 0 0 0 0 0 0 0 0 0 0 0 0 0 127 0"/>
<feOffset dx="1" dy="2"/>
<feGaussianBlur stdDeviation="2"/>
<feColorMatrix type="matrix" values="0 0 0 0 0 0 0 0 0 0 0 0 0 0 0 0 0 0 0.12 0"/>
<feBlend mode="normal" in2="BackgroundImageFix" result="effect1_dropShadow"/>
<feBlend mode="normal" in="SourceGraphic" in2="effect1_dropShadow" result="shape"/>
</filter>
</defs>
</svg>
